<svg width="24" height="25" viewBox="0 0 24 25" fill="none" xmlns="http://www.w3.org/2000/svg">
<g id="telephone 2" clip-path="url(#clip0_1301_1382)">
<g id="Group">
<g id="Group_2">
<path id="Vector" d="M18.2461 16.6187C17.462 15.8446 16.4832 15.8446 15.7041 16.6187C15.1098 17.208 14.5155 17.7973 13.9312 18.3966C13.7713 18.5614 13.6365 18.5964 13.4417 18.4865C13.0572 18.2767 12.6477 18.1069 12.2781 17.8772C10.5551 16.7935 9.11178 15.4001 7.83327 13.8319C7.19901 13.0528 6.63467 12.2188 6.24013 11.2799C6.16023 11.0901 6.17521 10.9653 6.33003 10.8105C6.92434 10.2361 7.50366 9.64681 8.08798 9.0575C8.90203 8.23846 8.90203 7.27957 8.08298 6.45554C7.61853 5.98608 7.15407 5.52662 6.68961 5.05717C6.21017 4.57773 5.73572 4.09329 5.25129 3.61885C4.4672 2.85474 3.48834 2.85474 2.70925 3.62384C2.10995 4.21315 1.53562 4.81745 0.926333 5.39677C0.361991 5.93115 0.0773229 6.58538 0.0173928 7.34949C-0.0774965 8.59304 0.227148 9.76667 0.656647 10.9103C1.53562 13.2776 2.87406 15.3801 4.49717 17.3079C6.68961 19.9148 9.30656 21.9774 12.368 23.4657C13.7464 24.1349 15.1747 24.6493 16.7279 24.7342C17.7967 24.7941 18.7256 24.5245 19.4697 23.6904C19.9791 23.1211 20.5534 22.6017 21.0928 22.0573C21.8919 21.2483 21.8969 20.2694 21.1028 19.4704C20.1539 18.5165 19.2 17.5676 18.2461 16.6187Z" fill="#2E8232"/>
<path id="Vector_2" d="M17.2887 12.6383L19.1315 12.3237C18.8419 10.6307 18.0428 9.09747 16.8292 7.87889C15.5457 6.59539 13.9226 5.78633 12.1347 5.53662L11.875 7.38946C13.2584 7.58423 14.5169 8.2085 15.5108 9.20234C16.4497 10.1412 17.0639 11.3299 17.2887 12.6383Z" fill="#2E8232"/>
<path id="Vector_3" d="M20.1756 4.62765C18.0481 2.50014 15.3562 1.1567 12.3847 0.742188L12.125 2.59503C14.692 2.95461 17.0193 4.11825 18.8571 5.95111C20.6001 7.69408 21.7438 9.89651 22.1583 12.3187L24.0011 12.004C23.5167 9.19732 22.1933 6.65029 20.1756 4.62765Z" fill="#2E8232"/>
</g>
</g>
</g>
<defs>
<clipPath id="clip0_1301_1382">
<rect width="24" height="24" fill="white" transform="translate(0 0.742188)"/>
</clipPath>
</defs>
</svg>
