<svg width="28" height="29" viewBox="0 0 28 29" fill="none" xmlns="http://www.w3.org/2000/svg">
<g clip-path="url(#clip0_1301_1360)">
<path d="M14 28.7422C21.732 28.7422 28 22.4742 28 14.7422C28 7.0102 21.732 0.742188 14 0.742188C6.26801 0.742188 0 7.0102 0 14.7422C0 22.4742 6.26801 28.7422 14 28.7422Z" fill="#3A559F"/>
<path d="M18.4366 13.0845L18.155 15.5233C18.1434 15.6346 18.0912 15.7377 18.0085 15.8131C17.9258 15.8885 17.8183 15.9309 17.7064 15.9322H15.161L15.1482 23.1629C15.1491 23.2486 15.1162 23.3311 15.0567 23.3928C14.9971 23.4544 14.9157 23.4901 14.83 23.4922H12.2512C12.2083 23.4922 12.1659 23.4836 12.1264 23.4668C12.0869 23.45 12.0513 23.4254 12.0216 23.3945C11.9919 23.3636 11.9687 23.327 11.9535 23.287C11.9382 23.2469 11.9313 23.2041 11.933 23.1613V15.9322H10.0239C9.96395 15.9316 9.9047 15.9191 9.84954 15.8956C9.79438 15.8721 9.7444 15.8379 9.70244 15.7951C9.66048 15.7522 9.62738 15.7016 9.60501 15.6459C9.58265 15.5903 9.57146 15.5308 9.57209 15.4708L9.56254 13.032C9.5617 12.9718 9.57272 12.912 9.59497 12.8561C9.61723 12.8002 9.65027 12.7492 9.69223 12.7061C9.73419 12.663 9.78423 12.6285 9.8395 12.6047C9.89477 12.5809 9.95419 12.5682 10.0144 12.5674H11.933V10.2129C11.933 7.47969 13.5557 5.99219 15.9357 5.99219H17.8862C17.9465 5.99281 18.0061 6.00533 18.0615 6.02904C18.117 6.05274 18.1672 6.08716 18.2093 6.13032C18.2515 6.17347 18.2847 6.22453 18.307 6.28054C18.3294 6.33655 18.3404 6.39643 18.3396 6.45673V8.50901C18.3404 8.56931 18.3294 8.62918 18.307 8.6852C18.2847 8.74121 18.2515 8.79226 18.2093 8.83542C18.1672 8.87858 18.117 8.913 18.0615 8.9367C18.0061 8.96041 17.9465 8.97293 17.8862 8.97355H16.6898C15.3964 8.97355 15.145 9.60991 15.145 10.5295V12.5674H17.988C18.0527 12.5682 18.1164 12.5827 18.1751 12.6099C18.2337 12.6371 18.2859 12.6764 18.3283 12.7253C18.3707 12.7741 18.4023 12.8314 18.4209 12.8933C18.4396 12.9552 18.4449 13.0203 18.4366 13.0845Z" fill="white"/>
</g>
<defs>
<clipPath id="clip0_1301_1360">
<rect width="28" height="28" fill="white" transform="translate(0 0.742188)"/>
</clipPath>
</defs>
</svg>
