<svg width="16" height="16" viewBox="0 0 16 16" fill="none" xmlns="http://www.w3.org/2000/svg">
<g clip-path="url(#clip0_471_883)">
<path d="M7.9974 0.666794C6.547 0.666794 5.12918 1.09689 3.92322 1.90268C2.71726 2.70848 1.77733 3.85379 1.22228 5.19378C0.66724 6.53377 0.522015 8.00826 0.804974 9.43079C1.08793 10.8533 1.78636 12.16 2.81195 13.1856C3.83753 14.2112 5.14421 14.9096 6.56674 15.1926C7.98926 15.4755 9.46375 15.3303 10.8037 14.7752C12.1437 14.2202 13.289 13.2803 14.0948 12.0743C14.9006 10.8683 15.3307 9.45052 15.3307 8.00013C15.3284 6.05591 14.5551 4.19198 13.1803 2.81721C11.8055 1.44244 9.94162 0.669087 7.9974 0.666794ZM10.4687 10.4715C10.3437 10.5964 10.1742 10.6667 9.9974 10.6667C9.82062 10.6667 9.65108 10.5964 9.52607 10.4715L7.52607 8.47146C7.40103 8.34646 7.33077 8.17692 7.33073 8.00013V4.00013C7.33073 3.82332 7.40097 3.65375 7.52599 3.52872C7.65102 3.4037 7.82059 3.33346 7.9974 3.33346C8.17421 3.33346 8.34378 3.4037 8.4688 3.52872C8.59383 3.65375 8.66407 3.82332 8.66407 4.00013V7.72413L10.4687 9.52879C10.5937 9.65381 10.6639 9.82335 10.6639 10.0001C10.6639 10.1769 10.5937 10.3464 10.4687 10.4715Z" fill="#2E8232"/>
</g>
<defs>
<clipPath id="clip0_471_883">
<rect width="16" height="16" fill="white"/>
</clipPath>
</defs>
</svg>
