<svg width="20" height="14" viewBox="0 0 20 14" fill="none" xmlns="http://www.w3.org/2000/svg">
<path fill-rule="evenodd" clip-rule="evenodd" d="M0 8.18934C2.37123 7.86536 4.61807 8.13859 6.69776 9.53992C5.76871 5.64432 7.0554 2.55283 9.98251 0C10.9893 1.12808 11.8678 2.28739 12.5053 3.62236C12.9796 4.60992 13.2945 5.64822 13.3256 6.74508C13.3683 8.24008 12.8824 9.58285 12.0233 10.789C11.7823 11.1247 11.5024 11.4331 11.2498 11.7649C11.0943 11.9717 10.9427 11.9717 10.725 11.8429C9.46939 11.0857 8.78911 9.95368 8.66083 8.50942C8.59863 7.79509 8.64917 7.06906 8.71137 6.34303C9.07288 7.90439 9.46939 9.42672 10.7055 10.5509C12.7969 9.12615 12.3848 4.44207 9.98251 2.49037C9.81147 2.68554 9.63266 2.8729 9.47328 3.07588C8.37318 4.45378 7.74733 6.01514 7.75899 7.79119C7.77454 10.141 9.3139 12.3191 11.378 12.9788C12.6259 13.377 13.7959 13.0608 14.9193 12.5533C15.4402 12.3191 15.9067 11.9327 16.3576 11.5697C16.5364 11.4214 16.6531 11.1559 16.723 10.9178C16.9757 10.0825 16.3576 9.37207 15.5219 9.60237C14.9116 9.77022 14.3401 10.0864 13.757 10.3557C13.5743 10.4416 13.415 10.5821 13.2362 10.7031C13.5044 8.52893 17.2867 7.02612 20 8.08004C19.7784 8.68507 19.6074 9.32133 19.3197 9.89903C18.2857 11.9873 16.6803 13.3965 14.3674 13.8805C13.0573 14.1576 11.8017 13.943 10.62 13.3379C9.4344 12.729 8.28766 12.0381 7.08649 11.4604C6.27405 11.07 5.40719 10.7851 4.54421 10.508C4.2721 10.4221 3.92225 10.4767 3.63459 10.5548C3.23032 10.668 3.06706 11.0505 3.16424 11.4643C3.28474 11.9678 3.62682 12.3074 4.02332 12.5963C4.8241 13.174 5.72983 13.4199 6.74441 13.4472C5.69485 13.7556 3.58795 13.658 2.37512 12.8695C1.02624 11.9913 0.190476 10.223 0 8.18934Z" fill="#2E8232"/>
</svg>
