<svg width="16" height="17" viewBox="0 0 16 17" fill="none" xmlns="http://www.w3.org/2000/svg">
<g clip-path="url(#clip0_471_878)">
<path d="M11.9104 16.5C10.6918 16.5 9.19675 15.9389 7.54968 14.8332C4.21951 12.5986 0.322341 8.01233 0.0202901 4.91341C-0.0762919 3.92229 0.172243 3.12259 0.759157 2.53567L2.7948 0.500031L6.93982 4.64505L6.60837 4.97649C6.07966 5.5053 5.21326 6.36985 4.59382 6.98509C5.16365 7.8219 6.26365 9.05852 7.07527 9.87014C7.84353 10.6377 8.7325 11.3365 9.53367 11.8716C10.1108 11.2907 10.8877 10.5115 11.523 9.87473L11.855 9.543L16 13.6889L13.989 15.6998C13.4539 16.235 12.7475 16.5 11.9104 16.5Z" fill="#2E8232"/>
</g>
<defs>
<clipPath id="clip0_471_878">
<rect width="16" height="16" fill="white" transform="translate(0 0.5)"/>
</clipPath>
</defs>
</svg>
